<?xml version="1.0" encoding="utf-8"?>
<!-- Generator: Adobe Illustrator 27.9.0, SVG Export Plug-In . SVG Version: 6.00 Build 0)  -->
<svg version="1.1" id="Layer_1" xmlns="http://www.w3.org/2000/svg" xmlns:xlink="http://www.w3.org/1999/xlink" x="0px" y="0px"
	 viewBox="0 0 128 128" style="enable-background:new 0 0 128 128;" xml:space="preserve">
<style type="text/css">
	.st0{fill:#FFE4C4;}
	.st1{fill:#8B0000;stroke:#8B0000;stroke-width:4;stroke-miterlimit:10;}
	.st2{fill:none;stroke:#8B0000;stroke-width:8;stroke-miterlimit:10;}
</style>
<rect x="4" y="4" class="st0" width="120" height="120"/>
<g>
	<path class="st1" d="M112.31,51.46c0,0.34-0.41,0.62-1.07,0.62c-0.25,0-0.61-0.06-1.02-0.17c-1.17-0.28-5.6-0.62-11.05-0.62
		c-1.78,0-3.72,0.06-5.65,0.11c-2.24,0.11-11,1.18-12.12,1.51c-1.17,0.34-1.83,0.5-2.44,0.5c-1.22,0-3.51-1.68-3.51-2.52
		c0-0.28,0.25-0.5,0.71-0.5c0.31,0,0.66,0.11,1.07,0.22c0.76,0.22,1.53,0.34,2.54,0.34c0.76,0,1.63-0.06,2.7-0.17
		c2.85-0.34,6.77-0.62,10.89-0.78c0-4.26,0.05-5.88,0.3-11.03c-5.45,0.5-7.89,1.23-9.26,2.35c-0.41,0.34-0.66,0.5-0.87,0.5
		c-0.46,0-0.61-1.29-0.61-1.85c0-0.39,0.15-0.56,0.46-0.9c0.71-0.67,1.02-1.57,1.02-6.38c0-7.34-0.31-7.84-1.17-8.68
		c-0.56-0.5-0.81-0.95-0.81-1.18c0-0.17,0.1-0.22,0.3-0.22c0.25,0,0.71,0.11,1.32,0.45c1.99,1.01,2.29,1.85,2.29,3.42
		c-0.05,5.54-0.15,7.84-0.46,11.93c3.56-0.67,4.63-0.84,7.84-1.06c0.15-5.21,0.25-8.96,0.25-11.7c0-6.1-0.46-7.22-1.42-8.18
		c-0.31-0.34-0.46-0.67-0.46-0.9c0-0.34,0.2-0.62,0.71-0.62c0.41,0,4.07,1.29,4.07,3.42c0,0.39-0.05,0.9-0.15,1.57
		c-0.31,1.96-0.51,4.09-1.07,16.18c3.26-0.39,3.97-0.45,7.43-0.67c0.71-4.14,0.97-7.11,0.97-9.24c0-2.41-0.36-3.75-0.87-4.42
		c-0.31-0.39-0.46-0.78-0.46-1.01c0-0.17,0.1-0.28,0.3-0.28c0.61,0,3.87,2.18,3.87,3.36c0,0.17-0.05,0.39-0.1,0.62
		c-0.56,2.35-0.76,3.3-1.17,7.45c-0.46,4.7-1.07,8.29-2.09,8.29c-0.56,0-0.76-1.51-0.76-2.02c0-0.34,0.05-0.73,0.1-1.23
		c-2.75,0.06-4.58,0.28-7.28,0.67c-0.2,4.54-0.36,8.34-0.46,11.2c6.26-0.5,8.65-0.73,10.08-1.06c0.81-0.17,1.42-0.28,1.99-0.28
		c1.12,0,2.09,0.39,3.72,1.4C111.85,50.5,112.31,51.06,112.31,51.46z"/>
	<path class="st1" d="M104.67,109.58c-0.46,0-1.02-0.45-1.32-1.4c-0.56-1.68-2.75-5.49-8.86-14.11
		c-6.41,8.68-15.98,15.46-17.05,15.46c-0.2,0-0.31-0.06-0.31-0.22c0-0.28,0.41-0.78,1.22-1.4c4.33-3.19,9.52-8.29,14.86-15.57
		c-5.6-7.95-6.31-8.9-10.84-13.5c-0.41-0.45-0.61-0.84-0.61-1.12c0-0.22,0.15-0.34,0.41-0.34c1.78,0,9.93,10.02,12.27,12.94
		c3.36-5.54,3.97-6.66,6.16-11.98c0.66-1.62,0.92-2.86,0.92-3.64c0-0.39-0.05-0.73-0.15-0.95c-0.15-0.28-0.2-0.56-0.2-0.78
		c0-0.17,0.1-0.34,0.3-0.34c0.66,0,3.41,2.41,3.41,3.47c0,0.39-0.2,0.84-0.61,1.4c-0.41,0.62-0.61,0.84-1.32,2.41
		c-1.37,3.08-4.53,8.46-7.08,12.15c6.01,7.9,7.48,10.08,9.06,12.6c0.66,1.06,0.92,1.85,0.92,2.63c0,0.39-0.1,0.84-0.2,1.29
		C105.44,109.25,105.08,109.58,104.67,109.58z"/>
	<path class="st1" d="M34.32,32.58c-0.05,3.98-0.25,13.27-0.25,16.74c0,2.74-0.2,8.51-1.07,8.51c-0.51,0-1.68-2.24-1.68-4.14
		c0-0.62,0.1-1.4,0.2-2.52c0.31-2.74,0.46-5.54,0.46-26.94c0-6.05-0.1-6.27-1.32-7.84c-0.25-0.28-0.36-0.56-0.36-0.78
		c0-0.28,0.2-0.45,0.61-0.45c0.31,0,4.33,1.12,4.33,2.74c0,0.28-0.05,0.56-0.15,0.95C34.47,21.38,34.47,21.89,34.32,32.58z"/>
	<path class="st1" d="M44.29,97.54c-1.37,4.93-4.53,15.18-6.11,15.18c-0.76,0-0.97-2.69-0.97-2.74c0-0.5,0.15-0.78,0.51-1.23
		c1.17-1.51,4.94-11.14,4.94-15.4c0-1.51-0.41-2.63-4.89-2.63c-4.53,0-12.52,1.51-16.44,3.08c-0.46,0.17-0.71,0.28-0.97,0.28
		c-0.56,0-0.81-1.29-0.81-1.79c0-0.39,0.15-0.67,0.61-1.06c2.04-1.74,5.04-9.86,5.04-16.18c0-1.18-0.1-2.02-0.31-2.35
		c-0.31-0.5-0.46-0.9-0.46-1.18c0-0.28,0.15-0.45,0.41-0.45c0.66,0,3.61,2.13,3.61,3.08c0,0.22-0.05,0.45-0.2,0.78
		c-0.46,1.06-0.56,1.4-1.17,3.64c-1.07,3.98-2.29,7.67-4.07,12.49c11.2-1.68,15.17-2.3,17.31-2.3c1.27,0,1.93,0.28,3.56,1.51
		c1.73,1.23,2.29,1.74,2.29,2.3c0,0.22-0.1,0.5-0.31,0.84C45.31,94.41,44.75,95.92,44.29,97.54z"/>
</g>
<g>
	<path class="st2" d="M4,115c0,4.97,4.03,9,9,9h102c4.97,0,9-4.03,9-9V13c0-4.97-4.03-9-9-9H13c-4.97,0-9,4.03-9,9V115z"/>
</g>
<g>
</g>
<g>
</g>
<g>
</g>
<g>
</g>
<g>
</g>
<g>
</g>
<g>
</g>
<g>
</g>
<g>
</g>
<g>
</g>
<g>
</g>
<g>
</g>
<g>
</g>
<g>
</g>
<g>
</g>
</svg>
